<svg id="_029-burger" data-name="029-burger" xmlns="http://www.w3.org/2000/svg" xmlns:xlink="http://www.w3.org/1999/xlink" width="31.106" height="31.106" viewBox="0 0 31.106 31.106">
  <defs>
    <linearGradient id="linear-gradient" x1="0.496" y1="0.116" x2="0.563" y2="1.389" gradientUnits="objectBoundingBox">
      <stop offset="0" stop-color="#faa68e"/>
      <stop offset="0.206" stop-color="#fba682"/>
      <stop offset="0.581" stop-color="#fda861"/>
      <stop offset="1" stop-color="#ffa936"/>
    </linearGradient>
    <linearGradient id="linear-gradient-2" x1="0.587" y1="1.089" x2="0.342" y2="-0.904" gradientUnits="objectBoundingBox">
      <stop offset="0" stop-color="#f82814" stop-opacity="0"/>
      <stop offset="0.245" stop-color="#f12817" stop-opacity="0.243"/>
      <stop offset="0.605" stop-color="#dd2820" stop-opacity="0.604"/>
      <stop offset="1" stop-color="#c0272d"/>
    </linearGradient>
    <linearGradient id="linear-gradient-3" x1="0.615" y1="0.563" x2="0.364" y2="-0.243" xlink:href="#linear-gradient-2"/>
    <linearGradient id="linear-gradient-4" x1="7.904" y1="-61.605" x2="9.288" y2="-59.685" xlink:href="#linear-gradient-2"/>
    <linearGradient id="linear-gradient-5" x1="12.256" y1="-81.333" x2="13.64" y2="-79.413" xlink:href="#linear-gradient-2"/>
    <linearGradient id="linear-gradient-6" x1="13.031" y1="-136.027" x2="14.416" y2="-134.108" xlink:href="#linear-gradient-2"/>
    <linearGradient id="linear-gradient-7" x1="-28.647" y1="-71.836" x2="-27.263" y2="-69.916" xlink:href="#linear-gradient-2"/>
    <linearGradient id="linear-gradient-8" x1="-33.217" y1="-92.888" x2="-31.832" y2="-90.969" xlink:href="#linear-gradient-2"/>
    <linearGradient id="linear-gradient-9" x1="-60.66" y1="-157.617" x2="-59.275" y2="-155.697" xlink:href="#linear-gradient-2"/>
    <linearGradient id="linear-gradient-10" x1="0.5" y1="0.31" x2="0.5" y2="1.368" xlink:href="#linear-gradient-2"/>
    <linearGradient id="linear-gradient-11" x1="0.5" y1="0.096" x2="0.5" y2="1.143" gradientUnits="objectBoundingBox">
      <stop offset="0" stop-color="#a57c52"/>
      <stop offset="0.134" stop-color="#a26c4a"/>
      <stop offset="0.516" stop-color="#994336"/>
      <stop offset="0.817" stop-color="#942a2a"/>
      <stop offset="1" stop-color="#922125"/>
    </linearGradient>
    <linearGradient id="linear-gradient-12" x1="0.505" y1="0.575" x2="0.496" y2="-0.283" gradientUnits="objectBoundingBox">
      <stop offset="0" stop-color="#42210b" stop-opacity="0"/>
      <stop offset="1" stop-color="#42210b"/>
    </linearGradient>
    <linearGradient id="linear-gradient-13" x1="0.807" y1="0.937" x2="0.325" y2="0.111" xlink:href="#linear-gradient-12"/>
    <linearGradient id="linear-gradient-14" x1="0.546" y1="1.139" x2="0.493" y2="0.366" xlink:href="#linear-gradient-12"/>
    <linearGradient id="linear-gradient-15" x1="0.419" y1="0.088" x2="0.825" y2="0.781" gradientUnits="objectBoundingBox">
      <stop offset="0" stop-color="#ffd945"/>
      <stop offset="0.304" stop-color="#ffcd3e"/>
      <stop offset="0.856" stop-color="#ffad2b"/>
      <stop offset="1" stop-color="#ffa325"/>
    </linearGradient>
    <linearGradient id="linear-gradient-16" x1="0.5" y1="0.355" x2="0.5" y2="1.112" gradientUnits="objectBoundingBox">
      <stop offset="0" stop-color="#bada00"/>
      <stop offset="0.227" stop-color="#b0ce00"/>
      <stop offset="0.638" stop-color="#95ae00"/>
      <stop offset="1" stop-color="#798c00"/>
    </linearGradient>
    <linearGradient id="linear-gradient-17" x1="0.499" y1="0.861" x2="0.501" y2="0.155" gradientUnits="objectBoundingBox">
      <stop offset="0" stop-color="#798c00" stop-opacity="0"/>
      <stop offset="0.654" stop-color="#556100" stop-opacity="0.655"/>
      <stop offset="1" stop-color="#464f00"/>
    </linearGradient>
    <linearGradient id="linear-gradient-18" x1="0.577" y1="0.89" x2="0.236" y2="-0.42" xlink:href="#linear-gradient-17"/>
    <linearGradient id="linear-gradient-19" x1="0.635" y1="1.058" x2="0.345" y2="0.204" xlink:href="#linear-gradient-17"/>
    <linearGradient id="linear-gradient-20" x1="0.351" y1="0.239" x2="0.791" y2="0.788" gradientUnits="objectBoundingBox">
      <stop offset="0" stop-color="#ffdecf"/>
      <stop offset="0.379" stop-color="#fdc4b0"/>
      <stop offset="0.766" stop-color="#fbae97"/>
      <stop offset="1" stop-color="#faa68e"/>
    </linearGradient>
    <linearGradient id="linear-gradient-21" x1="0.5" y1="0.511" x2="0.5" y2="0.986" gradientUnits="objectBoundingBox">
      <stop offset="0" stop-color="#ff6359"/>
      <stop offset="0.224" stop-color="#fe5b50"/>
      <stop offset="0.595" stop-color="#fc4637"/>
      <stop offset="1" stop-color="#f82814"/>
    </linearGradient>
    <linearGradient id="linear-gradient-22" x1="0.563" y1="1.18" x2="0.414" y2="0.088" gradientUnits="objectBoundingBox">
      <stop offset="0" stop-color="#f82814" stop-opacity="0"/>
      <stop offset="1" stop-color="#c0272d"/>
    </linearGradient>
    <linearGradient id="linear-gradient-23" x1="0.607" y1="1.091" x2="0.531" y2="0.537" xlink:href="#linear-gradient-22"/>
    <linearGradient id="linear-gradient-26" x1="0.637" y1="1.203" x2="0.452" y2="0.172" xlink:href="#linear-gradient-12"/>
    <linearGradient id="linear-gradient-28" x1="0.528" y1="1.044" x2="0.399" y2="0.284" xlink:href="#linear-gradient-12"/>
    <linearGradient id="linear-gradient-33" x1="0.499" y1="1.011" x2="0.5" y2="0.22" xlink:href="#linear-gradient-22"/>
    <linearGradient id="linear-gradient-34" x1="0.448" y1="0.135" x2="0.541" y2="1.126" xlink:href="#linear-gradient"/>
    <linearGradient id="linear-gradient-35" x1="-33.006" y1="-20.629" x2="-31.622" y2="-18.709" xlink:href="#linear-gradient-2"/>
    <linearGradient id="linear-gradient-36" x1="-39.559" y1="-29.434" x2="-38.175" y2="-27.515" xlink:href="#linear-gradient-2"/>
    <linearGradient id="linear-gradient-37" x1="-72.919" y1="-49.939" x2="-71.534" y2="-48.02" xlink:href="#linear-gradient-2"/>
    <linearGradient id="linear-gradient-38" x1="-53.805" y1="-5.822" x2="-52.421" y2="-3.902" xlink:href="#linear-gradient-2"/>
    <linearGradient id="linear-gradient-39" x1="-65.088" y1="-9.26" x2="-63.703" y2="-7.34" xlink:href="#linear-gradient-2"/>
    <linearGradient id="linear-gradient-40" x1="-113.513" y1="-18.931" x2="-112.128" y2="-17.012" xlink:href="#linear-gradient-2"/>
    <linearGradient id="linear-gradient-41" x1="0.5" y1="0.259" x2="0.5" y2="1.259" gradientUnits="objectBoundingBox">
      <stop offset="0" stop-color="#f82814" stop-opacity="0"/>
      <stop offset="0.25" stop-color="#f32816" stop-opacity="0.251"/>
      <stop offset="0.542" stop-color="#e5281d" stop-opacity="0.541"/>
      <stop offset="0.855" stop-color="#ce2727" stop-opacity="0.855"/>
      <stop offset="1" stop-color="#c0272d"/>
    </linearGradient>
    <linearGradient id="linear-gradient-42" x1="0.452" y1="0.18" x2="0.634" y2="1.388" xlink:href="#linear-gradient-20"/>
    <linearGradient id="linear-gradient-46" x1="0.452" y1="0.18" x2="0.634" y2="1.388" xlink:href="#linear-gradient-20"/>
    <linearGradient id="linear-gradient-56" x1="3.311" y1="-16.738" x2="3.496" y2="-15.617" xlink:href="#linear-gradient-20"/>
    <linearGradient id="linear-gradient-57" x1="-63.67" y1="13.431" x2="-63.485" y2="14.552" xlink:href="#linear-gradient-20"/>
  </defs>
  <g id="Group_50" data-name="Group 50" transform="translate(0.271 24.74)">
    <path id="Path_1775" data-name="Path 1775" d="M4.446,406.685a4.375,4.375,0,0,0,3.478,4.281A60.24,60.24,0,0,0,19.728,412a60.24,60.24,0,0,0,11.8-1.032,4.375,4.375,0,0,0,3.478-4.281,1.049,1.049,0,0,0-1.359-1,51.408,51.408,0,0,1-13.922,1.574,51.406,51.406,0,0,1-13.922-1.574,1.049,1.049,0,0,0-1.359,1Z" transform="translate(-4.446 -405.633)" fill="url(#linear-gradient)"/>
    <path id="Path_1776" data-name="Path 1776" d="M202.666,420.478l4.791,4.791a57.312,57.312,0,0,0,10.2-1.016,4.369,4.369,0,0,0,2-1.007l-3.463-3.463a64.791,64.791,0,0,1-10.343.76C204.766,420.543,203.7,420.521,202.666,420.478Z" transform="translate(-190.576 -418.92)" fill="url(#linear-gradient-2)"/>
    <path id="Path_1777" data-name="Path 1777" d="M411.2,405.682a30.194,30.194,0,0,1-4.681.984l3.824,3.824a4.373,4.373,0,0,0,2.216-3.8A1.049,1.049,0,0,0,411.2,405.682Z" transform="translate(-381.998 -405.633)" fill="url(#linear-gradient-3)"/>
    <g id="Group_49" data-name="Group 49" transform="translate(2.831 1.94)" opacity="0.6">
      <g id="Group_47" data-name="Group 47">
        <circle id="Ellipse_48" data-name="Ellipse 48" cx="0.514" cy="0.514" r="0.514" transform="translate(0.846)" fill="url(#linear-gradient-4)"/>
        <circle id="Ellipse_49" data-name="Ellipse 49" cx="0.406" cy="0.406" r="0.406" transform="translate(0 1.438)" fill="url(#linear-gradient-5)"/>
        <circle id="Ellipse_50" data-name="Ellipse 50" cx="0.245" cy="0.245" r="0.245" transform="translate(1.93 1.939)" fill="url(#linear-gradient-6)"/>
      </g>
      <g id="Group_48" data-name="Group 48" transform="translate(2.577 0.522)">
        <circle id="Ellipse_51" data-name="Ellipse 51" cx="0.38" cy="0.38" r="0.38" transform="translate(1.122)" fill="url(#linear-gradient-7)"/>
        <circle id="Ellipse_52" data-name="Ellipse 52" cx="0.3" cy="0.3" r="0.3" transform="translate(0 0.209)" fill="url(#linear-gradient-8)"/>
        <circle id="Ellipse_53" data-name="Ellipse 53" cx="0.181" cy="0.181" r="0.181" transform="translate(0.803 1.47)" fill="url(#linear-gradient-9)"/>
      </g>
    </g>
    <path id="Path_1778" data-name="Path 1778" d="M10.175,450.946a4.377,4.377,0,0,0,3.129,2.569,60.243,60.243,0,0,0,11.8,1.032,60.243,60.243,0,0,0,11.8-1.032,4.377,4.377,0,0,0,3.129-2.569Z" transform="translate(-9.826 -448.182)" fill="url(#linear-gradient-10)"/>
  </g>
  <path id="Path_1779" data-name="Path 1779" d="M4.446,338.583v.985A3.127,3.127,0,0,0,6.788,342.6a55.912,55.912,0,0,0,12.939,1.3,55.911,55.911,0,0,0,12.939-1.3,3.127,3.127,0,0,0,2.342-3.032v-.985a1.049,1.049,0,0,0-1.36-1,51.4,51.4,0,0,1-13.922,1.575,51.4,51.4,0,0,1-13.922-1.575,1.049,1.049,0,0,0-1.359,1Z" transform="translate(-4.175 -316.945)" fill="url(#linear-gradient-11)"/>
  <path id="Path_1780" data-name="Path 1780" d="M39.035,337.58a51.4,51.4,0,0,1-13.922,1.575,51.4,51.4,0,0,1-13.922-1.575,1.039,1.039,0,0,0-1.01.221l5.474,5.474a67.231,67.231,0,0,0,9.457.621,55.91,55.91,0,0,0,12.939-1.3,3.127,3.127,0,0,0,2.342-3.032v-.985A1.049,1.049,0,0,0,39.035,337.58Z" transform="translate(-9.56 -316.945)" fill="url(#linear-gradient-12)"/>
  <path id="Path_1781" data-name="Path 1781" d="M385.756,340.122v-.693l-1.309-1.309c-.017,0-.034.007-.05.012a34.774,34.774,0,0,1-6.422,1.2v1.694a1.232,1.232,0,0,0,.442.946l1.813,1.813c1.184-.18,2.255-.392,3.184-.63A3.127,3.127,0,0,0,385.756,340.122Z" transform="translate(-354.922 -317.498)" fill="url(#linear-gradient-13)"/>
  <path id="Path_1782" data-name="Path 1782" d="M157.814,359.344c-2.042.188-4.292.293-6.657.293s-4.594-.1-6.628-.29a.913.913,0,0,0,.152,1.094l3.9,3.9q1.262.041,2.581.042A63.348,63.348,0,0,0,162,363.533Z" transform="translate(-135.605 -337.427)" fill="url(#linear-gradient-14)"/>
  <path id="Path_1783" data-name="Path 1783" d="M157.246,338.434a21.016,21.016,0,0,0-12.189,0,.916.916,0,0,0-.382,1.524l4.726,4.726a2.476,2.476,0,0,0,3.5,0l4.726-4.726A.916.916,0,0,0,157.246,338.434Z" transform="translate(-135.598 -316.945)" fill="url(#linear-gradient-15)"/>
  <path id="Path_1784" data-name="Path 1784" d="M35.009,278.3c0-4.323-30.563-4.323-30.563,0,0,.745.909,1.362,2.413,1.85a3.958,3.958,0,0,1,1.472.856l.045.042a3.2,3.2,0,0,0,3.4.61h0a3.206,3.206,0,0,1,3,.292l.085.056a3.164,3.164,0,0,0,3.272.139l.079-.043a3.163,3.163,0,0,1,3.042,0l.079.043a3.164,3.164,0,0,0,3.272-.139l.1-.068a3.164,3.164,0,0,1,2.98-.28,3.164,3.164,0,0,0,3.38-.595l.061-.057a3.954,3.954,0,0,1,1.471-.856C34.1,279.662,35.009,279.045,35.009,278.3Z" transform="translate(-4.175 -258.282)" fill="url(#linear-gradient-16)"/>
  <path id="Path_1785" data-name="Path 1785" d="M47.09,278.3c0,.745-.909,1.361-2.413,1.85a3.967,3.967,0,0,0-1.471.856l-.061.057a3.162,3.162,0,0,1-3.38.594,3.166,3.166,0,0,0-2.981.28l-.1.068a3.165,3.165,0,0,1-3.272.139l-.079-.044a3.164,3.164,0,0,0-3.042,0l-.078.043a3.163,3.163,0,0,1-3.272-.139l-.085-.056a3.205,3.205,0,0,0-3-.293h0a3.2,3.2,0,0,1-2.085.124l-3.933-3.933a2.628,2.628,0,0,1-.524-.669c1.759-1.164,6.258-1.849,11.241-2.055,2.14-.089,4.371-.089,6.511,0,6.415.265,12.026,1.323,12.026,3.176Z" transform="translate(-16.255 -258.283)" fill="url(#linear-gradient-17)"/>
  <path id="Path_1786" data-name="Path 1786" d="M48.838,277.456a34.478,34.478,0,0,0-8.288,1.316,1.235,1.235,0,0,0,.465.73l4.476,4.476c.062-.021.123-.043.184-.068h0a3.206,3.206,0,0,1,3,.292l.085.056a3.164,3.164,0,0,0,3.272.139l.079-.043a3.164,3.164,0,0,1,3.042,0l.079.044a3.159,3.159,0,0,0,.869.32Z" transform="translate(-38.077 -260.534)" fill="url(#linear-gradient-18)"/>
  <path id="Path_1787" data-name="Path 1787" d="M383.194,317.567h-5.219v3.856a3.174,3.174,0,0,1,.455.151,3.164,3.164,0,0,0,3.38-.595l.061-.057a3.956,3.956,0,0,1,1.471-.856,6.849,6.849,0,0,0,1.624-.726Z" transform="translate(-354.922 -298.198)" fill="url(#linear-gradient-19)"/>
  <path id="Path_1788" data-name="Path 1788" d="M377.975,317.567v4.158a1.235,1.235,0,0,0,2.469,0v-.842a.428.428,0,1,1,.855,0v.069a.947.947,0,1,0,1.894,0v-3.384Z" transform="translate(-354.922 -298.198)" fill="url(#linear-gradient-20)"/>
  <path id="Path_1789" data-name="Path 1789" d="M11.871,258.118v.068a2.647,2.647,0,0,0,1.944,2.556A52.842,52.842,0,0,0,26.7,262.087a52.842,52.842,0,0,0,12.885-1.344,2.647,2.647,0,0,0,1.944-2.556v-.068a1.92,1.92,0,0,0-2.389-1.863,54.689,54.689,0,0,1-12.44,1.229,54.693,54.693,0,0,1-12.44-1.229A1.92,1.92,0,0,0,11.871,258.118Z" transform="translate(-11.147 -240.571)" fill="url(#linear-gradient-21)"/>
  <path id="Path_1790" data-name="Path 1790" d="M48.229,257.321a44.32,44.32,0,0,1-7.475-1.064,1.922,1.922,0,0,0-.668-.049v2.347a1.231,1.231,0,0,0,.493.986l1.642,1.642a59.731,59.731,0,0,0,10.774.9Z" transform="translate(-37.641 -240.572)" fill="url(#linear-gradient-22)"/>
  <path id="Path_1791" data-name="Path 1791" d="M257.569,257.4a54.921,54.921,0,0,1-12.381,1.214l-.637,0,4.506,4.506a44.919,44.919,0,0,0,9.016-1.246,2.643,2.643,0,0,0,1.9-2.07Z" transform="translate(-229.635 -241.697)" fill="url(#linear-gradient-23)"/>
  <path id="Path_1792" data-name="Path 1792" d="M4.446,211.815v.985a3.127,3.127,0,0,0,2.342,3.032,55.911,55.911,0,0,0,12.939,1.3,55.911,55.911,0,0,0,12.939-1.3,3.127,3.127,0,0,0,2.342-3.032v-.985a1.049,1.049,0,0,0-1.36-1,51.409,51.409,0,0,1-13.922,1.575,51.409,51.409,0,0,1-13.922-1.575,1.049,1.049,0,0,0-1.359,1Z" transform="translate(-4.175 -197.908)" fill="url(#linear-gradient-11)"/>
  <path id="Path_1793" data-name="Path 1793" d="M39.035,210.812a51.406,51.406,0,0,1-13.922,1.575,51.407,51.407,0,0,1-13.922-1.575,1.039,1.039,0,0,0-1.01.221l5.474,5.474a67.217,67.217,0,0,0,9.458.621,55.91,55.91,0,0,0,12.939-1.3,3.127,3.127,0,0,0,2.342-3.032v-.985a1.049,1.049,0,0,0-1.359-1Z" transform="translate(-9.56 -197.908)" fill="url(#linear-gradient-12)"/>
  <path id="Path_1794" data-name="Path 1794" d="M230.053,228.449l-3.668-3.668a64.669,64.669,0,0,1-10.392.768q-1.281,0-2.511-.04a.905.905,0,0,0,.246.844l3.9,3.9.483.014A51.823,51.823,0,0,0,228.932,229,3.09,3.09,0,0,0,230.053,228.449Z" transform="translate(-200.44 -211.071)" fill="url(#linear-gradient-26)"/>
  <path id="Path_1795" data-name="Path 1795" d="M226.285,211.666a21.017,21.017,0,0,0-12.189,0,.916.916,0,0,0-.382,1.524l4.726,4.726a2.476,2.476,0,0,0,3.5,0l4.726-4.726A.916.916,0,0,0,226.285,211.666Z" transform="translate(-200.427 -197.909)" fill="url(#linear-gradient-15)"/>
  <path id="Path_1796" data-name="Path 1796" d="M40.255,230.765a50.953,50.953,0,0,0,10.4,1.255l-5.092-5.092c-.712-.078-1.4-.165-2.045-.263H40.087v4.051C40.142,230.734,40.2,230.75,40.255,230.765Z" transform="translate(-37.642 -212.84)" fill="url(#linear-gradient-28)"/>
  <path id="Path_1797" data-name="Path 1797" d="M40.087,226.665v4.158a1.235,1.235,0,0,0,2.469,0v-.842a.428.428,0,1,1,.855,0v.069a.947.947,0,0,0,1.894,0v-3.385Z" transform="translate(-37.642 -212.84)" fill="url(#linear-gradient-20)"/>
  <path id="Path_1798" data-name="Path 1798" d="M35.009,151.532c0-4.323-30.563-4.323-30.563,0,0,.745.909,1.362,2.413,1.85a3.957,3.957,0,0,1,1.472.856l.045.042a3.2,3.2,0,0,0,3.4.61h0a3.206,3.206,0,0,1,3,.292l.085.056a3.164,3.164,0,0,0,3.272.139l.079-.043a3.163,3.163,0,0,1,3.042,0l.079.043a3.164,3.164,0,0,0,3.272-.139l.1-.068a3.164,3.164,0,0,1,2.98-.28,3.164,3.164,0,0,0,3.38-.595l.061-.057a3.954,3.954,0,0,1,1.471-.856C34.1,152.894,35.009,152.277,35.009,151.532Z" transform="translate(-4.175 -139.246)" fill="url(#linear-gradient-16)"/>
  <path id="Path_1799" data-name="Path 1799" d="M47.09,151.539c0,.745-.909,1.361-2.413,1.85a3.966,3.966,0,0,0-1.471.856l-.061.057a3.163,3.163,0,0,1-3.38.594,3.166,3.166,0,0,0-2.981.28l-.1.068a3.165,3.165,0,0,1-3.272.139l-.079-.044a3.164,3.164,0,0,0-3.042,0l-.078.043a3.163,3.163,0,0,1-3.272-.139l-.085-.056a3.205,3.205,0,0,0-3-.293h0a3.2,3.2,0,0,1-2.085.124l-3.933-3.933a2.626,2.626,0,0,1-.524-.669c1.759-1.164,6.258-1.849,11.241-2.055,2.14-.089,4.371-.089,6.511,0C41.478,148.628,47.09,149.686,47.09,151.539Z" transform="translate(-16.255 -139.252)" fill="url(#linear-gradient-17)"/>
  <path id="Path_1800" data-name="Path 1800" d="M11.871,131.35v.068a2.647,2.647,0,0,0,1.944,2.556A52.842,52.842,0,0,0,26.7,135.319a52.842,52.842,0,0,0,12.885-1.344,2.647,2.647,0,0,0,1.944-2.556v-.068a1.92,1.92,0,0,0-2.389-1.863,54.691,54.691,0,0,1-12.44,1.229,54.7,54.7,0,0,1-12.44-1.229A1.92,1.92,0,0,0,11.871,131.35Z" transform="translate(-11.147 -121.535)" fill="url(#linear-gradient-21)"/>
  <path id="Path_1801" data-name="Path 1801" d="M43.508,131.35v.068a2.648,2.648,0,0,1-1.944,2.556,52.862,52.862,0,0,1-12.885,1.344,60.255,60.255,0,0,1-10.933-.9l-3.767-3.767a1.922,1.922,0,0,1,2.26-1.167,54.7,54.7,0,0,0,12.441,1.228,54.7,54.7,0,0,0,12.441-1.228A1.92,1.92,0,0,1,43.508,131.35Z" transform="translate(-13.126 -121.535)" fill="url(#linear-gradient-33)"/>
  <g id="Group_54" data-name="Group 54" transform="translate(0 0.304)">
    <path id="Path_1802" data-name="Path 1802" d="M31.106,12.813c0,4.323-31.106,4.323-31.106,0S6.963,4.986,15.553,4.986,31.106,8.49,31.106,12.813Z" transform="translate(0 -4.986)" fill="url(#linear-gradient-34)"/>
    <g id="Group_53" data-name="Group 53" transform="translate(24.714 5.89)" opacity="0.6">
      <g id="Group_51" data-name="Group 51">
        <circle id="Ellipse_54" data-name="Ellipse 54" cx="0.514" cy="0.514" r="0.514" transform="translate(0.846)" fill="url(#linear-gradient-35)"/>
        <circle id="Ellipse_55" data-name="Ellipse 55" cx="0.406" cy="0.406" r="0.406" transform="translate(0 1.438)" fill="url(#linear-gradient-36)"/>
        <circle id="Ellipse_56" data-name="Ellipse 56" cx="0.245" cy="0.245" r="0.245" transform="translate(1.93 1.939)" fill="url(#linear-gradient-37)"/>
      </g>
      <g id="Group_52" data-name="Group 52" transform="translate(2.577 0.522)">
        <circle id="Ellipse_57" data-name="Ellipse 57" cx="0.38" cy="0.38" r="0.38" transform="translate(1.122)" fill="url(#linear-gradient-38)"/>
        <circle id="Ellipse_58" data-name="Ellipse 58" cx="0.3" cy="0.3" r="0.3" transform="translate(0 0.209)" fill="url(#linear-gradient-39)"/>
        <circle id="Ellipse_59" data-name="Ellipse 59" cx="0.181" cy="0.181" r="0.181" transform="translate(0.803 1.47)" fill="url(#linear-gradient-40)"/>
      </g>
    </g>
    <path id="Path_1803" data-name="Path 1803" d="M0,98.024c0,4.323,31.106,4.323,31.106,0a4.381,4.381,0,0,0-.679-2.293H.679A4.381,4.381,0,0,0,0,98.024Z" transform="translate(0 -90.196)" fill="url(#linear-gradient-41)"/>
  </g>
  <g id="Group_59" data-name="Group 59" transform="translate(5.443 0)">
    <g id="Group_55" data-name="Group 55" transform="translate(2.315 6.429)">
      <ellipse id="Ellipse_60" data-name="Ellipse 60" cx="0.851" cy="0.373" rx="0.851" ry="0.373" fill="url(#linear-gradient-42)"/>
      <ellipse id="Ellipse_61" data-name="Ellipse 61" cx="0.851" cy="0.373" rx="0.851" ry="0.373" transform="translate(4.629)" fill="url(#linear-gradient-42)"/>
      <ellipse id="Ellipse_62" data-name="Ellipse 62" cx="0.851" cy="0.373" rx="0.851" ry="0.373" transform="translate(9.259)" fill="url(#linear-gradient-42)"/>
      <ellipse id="Ellipse_63" data-name="Ellipse 63" cx="0.851" cy="0.373" rx="0.851" ry="0.373" transform="translate(13.888)" fill="url(#linear-gradient-42)"/>
    </g>
    <g id="Group_56" data-name="Group 56" transform="translate(0 4.286)">
      <ellipse id="Ellipse_64" data-name="Ellipse 64" cx="0.851" cy="0.373" rx="0.851" ry="0.373" fill="url(#linear-gradient-46)"/>
      <ellipse id="Ellipse_65" data-name="Ellipse 65" cx="0.851" cy="0.373" rx="0.851" ry="0.373" transform="translate(4.629)" fill="url(#linear-gradient-46)"/>
      <ellipse id="Ellipse_66" data-name="Ellipse 66" cx="0.851" cy="0.373" rx="0.851" ry="0.373" transform="translate(9.259)" fill="url(#linear-gradient-46)"/>
      <ellipse id="Ellipse_67" data-name="Ellipse 67" cx="0.851" cy="0.373" rx="0.851" ry="0.373" transform="translate(13.888)" fill="url(#linear-gradient-46)"/>
      <ellipse id="Ellipse_68" data-name="Ellipse 68" cx="0.851" cy="0.373" rx="0.851" ry="0.373" transform="translate(18.517)" fill="url(#linear-gradient-46)"/>
    </g>
    <g id="Group_57" data-name="Group 57" transform="translate(2.315 2.143)">
      <ellipse id="Ellipse_69" data-name="Ellipse 69" cx="0.851" cy="0.373" rx="0.851" ry="0.373" fill="url(#linear-gradient-42)"/>
      <ellipse id="Ellipse_70" data-name="Ellipse 70" cx="0.851" cy="0.373" rx="0.851" ry="0.373" transform="translate(4.629)" fill="url(#linear-gradient-42)"/>
      <ellipse id="Ellipse_71" data-name="Ellipse 71" cx="0.851" cy="0.373" rx="0.851" ry="0.373" transform="translate(9.259)" fill="url(#linear-gradient-42)"/>
      <ellipse id="Ellipse_72" data-name="Ellipse 72" cx="0.851" cy="0.373" rx="0.851" ry="0.373" transform="translate(13.888)" fill="url(#linear-gradient-42)"/>
    </g>
    <ellipse id="Ellipse_73" data-name="Ellipse 73" cx="0.851" cy="0.373" rx="0.851" ry="0.373" transform="translate(9.259)" fill="url(#linear-gradient-42)"/>
    <g id="Group_58" data-name="Group 58" transform="translate(4.729 0.22)">
      <path id="Path_1804" data-name="Path 1804" d="M317.413,4.18c-.04.2-.447.291-.908.2s-.8-.33-.762-.532.447-.291.908-.2S317.454,3.978,317.413,4.18Z" transform="translate(-306.656 -3.611)" fill="url(#linear-gradient-56)"/>
      <path id="Path_1805" data-name="Path 1805" d="M166.787,4.18c.04.2.447.291.908.2s.8-.33.762-.532-.447-.291-.908-.2S166.747,3.978,166.787,4.18Z" transform="translate(-166.784 -3.611)" fill="url(#linear-gradient-57)"/>
    </g>
  </g>
</svg>
