<svg xmlns="http://www.w3.org/2000/svg" width="31.376" height="34.018" viewBox="0 0 31.376 34.018">
  <g id="Group_4301" data-name="Group 4301" transform="translate(-426.545 -416.908)">
    <g id="Group_2796" data-name="Group 2796" transform="translate(426.545 416.908)">
      <g id="Group_2795" data-name="Group 2795" transform="translate(0 0)">
        <path id="Path_2058" data-name="Path 2058" d="M51.067,26.163,45.719,14.745a.5.5,0,0,0-.9.423l5.348,11.418a1.026,1.026,0,0,1-.494,1.362l-10.253,4.8a1.025,1.025,0,0,1-1.362-.493l-1.917-4.094,4.989-12.038A2.026,2.026,0,0,0,41.1,14.5l-2.729-5.9L41.9,9.725a1.025,1.025,0,0,1,.619.542l1.31,2.8a.5.5,0,1,0,.9-.423l-1.31-2.8A2.023,2.023,0,0,0,42.2,8.775l-4.266-1.35a26.157,26.157,0,0,0,2.125-3.772c.836-2.017.161-3.139-.749-3.516S37.133.076,36.3,2.093a23.73,23.73,0,0,0-.924,4.377,2.818,2.818,0,0,0-.833.18L28.086,9.117a2.03,2.03,0,0,0-1.146,1.114l-6.9,16.657a2.021,2.021,0,0,0,1.093,2.641l2.019.837a.5.5,0,0,0,.382-.921l-2.019-.837a1.024,1.024,0,0,1-.554-1.338l6.9-16.657a1.029,1.029,0,0,1,.581-.565L34.9,7.581a1.837,1.837,0,0,1,.337-.093c-.062.468-.112.877-.148,1.184a1.684,1.684,0,1,0,.975.245c.037-.317.094-.785.165-1.33a1.844,1.844,0,0,1,1.007.944l2.957,6.389a1.027,1.027,0,0,1,.017.822l-6.9,16.646a1.024,1.024,0,0,1-1.338.554L25.8,30.387a.5.5,0,0,0-.382.921l6.166,2.555a2.021,2.021,0,0,0,2.641-1.093l1.393-3.361,1.531,3.27a2.021,2.021,0,0,0,2.687.973l10.253-4.8A2.024,2.024,0,0,0,51.067,26.163ZM35.827,10.588a.687.687,0,1,1-.024-.525A.683.683,0,0,1,35.827,10.588ZM37.083,6.91a2.878,2.878,0,0,0-.718-.327,22.836,22.836,0,0,1,.854-4.109c.226-.546.846-1.776,1.714-1.416s.436,1.668.21,2.213A24.823,24.823,0,0,1,37.083,6.91Z" transform="translate(-19.881 0.001)" fill="#191717"/>
      </g>
    </g>
    <g id="Group_3297" data-name="Group 3297" transform="translate(432.057 432.177)">
      <g id="Group_2797" data-name="Group 2797" transform="translate(0)">
        <path id="Path_2059" data-name="Path 2059" d="M106.26,231.336a4.58,4.58,0,0,1,6.732,4.045.5.5,0,0,0,.5.5h0a.5.5,0,0,0,.5-.5,5.621,5.621,0,0,0-1.072-3.289,5.575,5.575,0,1,0,.537,5.668.5.5,0,1,0-.9-.425,4.6,4.6,0,0,1-5.477,2.422,4.579,4.579,0,0,1-.815-8.422Z" transform="translate(-102.833 -229.802)" fill="#191717"/>
      </g>
    </g>
    <g id="Group_3298" data-name="Group 3298" transform="translate(435.617 434.719)">
      <g id="Group_2799" data-name="Group 2799" transform="translate(0)">
        <path id="Path_2060" data-name="Path 2060" d="M160.343,269.717a.944.944,0,0,0-.562-.463l-.226-.069.154-.5a.5.5,0,1,0-.953-.291l-.157.515a1.357,1.357,0,0,0-.626,2.636l.627.191a.361.361,0,1,1-.211.691l-.314-.1-.661-.2a.5.5,0,0,0-.965-.246.952.952,0,0,0,.632,1.187l.226.069-.154.5a.5.5,0,1,0,.953.291l.157-.515a1.357,1.357,0,0,0,.627-2.636l-.627-.191a.361.361,0,0,1,.211-.691l.313.1h0l.661.2a.5.5,0,0,0,.965.246A.944.944,0,0,0,160.343,269.717Z" transform="translate(-156.407 -268.037)" fill="#191717"/>
      </g>
    </g>
  </g>
</svg>
